{
  "source": "C:\\Users\\Peter\\Desktop\\stuff\\MIUN\\quantitative_research\\video_compression\\videos\\BVI-HD\\RockWater_1920x1080_30fps.mp4",
  "output": "C:\\Users\\Peter\\Desktop\\stuff\\MIUN\\quantitative_research\\video_compression\\compressed_videos\\BVI-HD\\av1\\1\\RockWater_1920x1080_30fps_av1.mkv",
  "codec": "av1",
  "ok": "Input #0, mov,mp4,m4a,3gp,3g2,mj2, from 'C:\\Users\\Peter\\Desktop\\stuff\\MIUN\\quantitative_research\\video_compression\\videos\\BVI-HD\\RockWater_1920x1080_30fps.mp4':\n  Metadata:\n    major_brand     : isom\n    minor_version   : 512\n    compatible_brands: isomiso2avc1mp41\n    encoder         : Lavf54.28.101\n  Duration: 00:00:05.00, start: 0.000000, bitrate: 245943 kb/s\n  Stream #0:0[0x1](und): Video: h264 (High 4:4:4 Predictive) (avc1 / 0x31637661), yuv420p(progressive), 1920x1080, 245940 kb/s, 30 fps, 30 tbr, 30 tbn (default)\n    Metadata:\n      handler_name    : VideoHandler\n      vendor_id       : [0][0][0][0]\n[out#0/matroska @ 000001eee6090d00] Codec AVOption b:a (set bitrate (in bits/s)) has not been used for any stream. The most likely reason is either wrong type (e.g. a video option with no video streams) or that it is a private option of some decoder which was not actually used for any stream.\nStream mapping:\n  Stream #0:0 -> #0:0 (h264 (native) -> av1 (libsvtav1))\nPress [q] to stop, [?] for help\nSvt[info]: -------------------------------------------\nSvt[info]: SVT [version]:\tSVT-AV1 Encoder Lib v3.1.0-19-g6ecfe8ec\nSvt[info]: SVT [build]  :\tGCC 15.2.0\t 64 bit\nSvt[info]: LIB Build date: Aug 17 2025 11:37:13\nSvt[info]: -------------------------------------------\nSvt[info]: Level of Parallelism: 5\nSvt[info]: Number of PPCS 93\nSvt[info]: [asm level on system : up to avx2]\nSvt[info]: [asm level selected : up to avx2]\nSvt[info]: -------------------------------------------\nSvt[info]: SVT [config]: main profile\ttier (auto)\tlevel (auto)\nSvt[info]: SVT [config]: width / height / fps numerator / fps denominator \t\t: 1920 / 1080 / 30 / 1\nSvt[info]: SVT [config]: bit-depth / color format \t\t\t\t\t: 8 / YUV420\nSvt[info]: SVT [config]: preset / tune / pred struct \t\t\t\t\t: 4 / PSNR / random access\nSvt[info]: SVT [config]: gop size / mini-gop size / key-frame type \t\t\t: 161 / 16 / key frame\nSvt[info]: SVT [config]: BRC mode / target bitrate (kbps)\t\t\t\t: VBR / 1000 \nSvt[info]: SVT [config]: AQ mode / Variance Boost \t\t\t\t\t: 2 / 0\nSvt[info]: SVT [config]: sharpness / luminance-based QP bias \t\t\t\t: 0 / 0\nSvt[info]: SVT [config]: QP scale compress strength \t\t\t\t\t: 0\nSvt[info]: -------------------------------------------\nOutput #0, matroska, to 'C:\\Users\\Peter\\Desktop\\stuff\\MIUN\\quantitative_research\\video_compression\\compressed_videos\\BVI-HD\\av1\\1\\RockWater_1920x1080_30fps_av1.mkv':\n  Metadata:\n    major_brand     : isom\n    minor_version   : 512\n    compatible_brands: isomiso2avc1mp41\n    encoder         : Lavf62.3.100\n  Stream #0:0(und): Video: av1 (AV01 / 0x31305641), yuv420p(tv, progressive), 1920x1080, q=2-31, 1000 kb/s, 30 fps, 1k tbn (default)\n    Metadata:\n      encoder         : Lavc62.11.100 libsvtav1\n      handler_name    : VideoHandler\n      vendor_id       : [0][0][0][0]\n    Side data:\n      cpb: bitrate max/min/avg: 0/0/1000000 buffer size: 1000000 vbv_delay: N/A\nframe=    0 fps=0.0 q=0.0 size=       0KiB time=N/A bitrate=N/A speed=N/A elapsed=0:00:01.02    \nframe=    0 fps=0.0 q=0.0 size=       0KiB time=N/A bitrate=N/A speed=N/A elapsed=0:00:01.55    \nframe=    0 fps=0.0 q=0.0 size=       0KiB time=N/A bitrate=N/A speed=N/A elapsed=0:00:02.06    \nframe=    0 fps=0.0 q=0.0 size=       0KiB time=N/A bitrate=N/A speed=N/A elapsed=0:00:02.57    \nframe=    0 fps=0.0 q=0.0 size=       0KiB time=N/A bitrate=N/A speed=N/A elapsed=0:00:03.09    \nframe=    0 fps=0.0 q=0.0 size=       0KiB time=N/A bitrate=N/A speed=N/A elapsed=0:00:03.61    \nframe=    0 fps=0.0 q=0.0 size=       0KiB time=N/A bitrate=N/A speed=N/A elapsed=0:00:04.14    \nframe=    1 fps=0.2 q=40.0 size=       1KiB time=00:00:00.00 bitrate=N/A speed=   0x elapsed=0:00:04.66    \nframe=    1 fps=0.2 q=40.0 size=       1KiB time=00:00:00.00 bitrate=N/A speed=   0x elapsed=0:00:05.17    \nframe=    1 fps=0.2 q=40.0 size=       1KiB time=00:00:00.00 bitrate=N/A speed=   0x elapsed=0:00:05.69    \nframe=    4 fps=0.6 q=58.0 size=       1KiB time=00:00:00.10 bitrate=  57.0kbits/s speed=0.0161x elapsed=0:00:06.20    \nframe=    6 fps=0.9 q=58.0 size=       1KiB time=00:00:00.16 bitrate=  34.2kbits/s speed=0.0248x elapsed=0:00:06.72    \nframe=    7 fps=1.0 q=54.0 size=       1KiB time=00:00:00.20 bitrate=  28.5kbits/s speed=0.0276x elapsed=0:00:07.23    \nframe=   10 fps=1.3 q=56.0 size=       1KiB time=00:00:00.30 bitrate=  19.0kbits/s speed=0.0386x elapsed=0:00:07.76    \nframe=   12 fps=1.4 q=55.0 size=       1KiB time=00:00:00.36 bitrate=  15.6kbits/s speed=0.0443x elapsed=0:00:08.27    \nframe=   18 fps=2.0 q=58.0 size=       1KiB time=00:00:00.56 bitrate=  10.1kbits/s speed=0.0645x elapsed=0:00:08.79    \nframe=   20 fps=2.1 q=58.0 size=       1KiB time=00:00:00.63 bitrate=   9.0kbits/s speed=0.068x elapsed=0:00:09.30    \nframe=   22 fps=2.2 q=57.0 size=       1KiB time=00:00:00.70 bitrate=   8.1kbits/s speed=0.0713x elapsed=0:00:09.81    \nframe=   23 fps=2.2 q=56.0 size=       1KiB time=00:00:00.73 bitrate=   7.8kbits/s speed=0.071x elapsed=0:00:10.32    \nframe=   27 fps=2.5 q=55.0 size=       1KiB time=00:00:00.86 bitrate=   6.6kbits/s speed=0.0799x elapsed=0:00:10.84    \nframe=   32 fps=2.8 q=59.0 size=       1KiB time=00:00:01.03 bitrate=   5.5kbits/s speed=0.0909x elapsed=0:00:11.36    \nframe=   35 fps=2.9 q=56.0 size=       1KiB time=00:00:01.13 bitrate=   5.0kbits/s speed=0.0954x elapsed=0:00:11.87    \nframe=   38 fps=3.1 q=59.0 size=       1KiB time=00:00:01.23 bitrate=   4.6kbits/s speed=0.0995x elapsed=0:00:12.39    \nframe=   39 fps=3.0 q=56.0 size=       1KiB time=00:00:01.26 bitrate=   4.5kbits/s speed=0.0981x elapsed=0:00:12.90    \nframe=   42 fps=3.1 q=59.0 size=       1KiB time=00:00:01.36 bitrate=   4.2kbits/s speed=0.102x elapsed=0:00:13.42    \nframe=   47 fps=3.4 q=57.0 size=       1KiB time=00:00:01.53 bitrate=   3.7kbits/s speed=0.11x elapsed=0:00:13.94    \nframe=   51 fps=3.5 q=60.0 size=       1KiB time=00:00:01.66 bitrate=   3.4kbits/s speed=0.115x elapsed=0:00:14.45    \nframe=   57 fps=3.8 q=51.0 size=       1KiB time=00:00:01.86 bitrate=   3.1kbits/s speed=0.125x elapsed=0:00:14.97    \nframe=   59 fps=3.8 q=59.0 size=       1KiB time=00:00:01.93 bitrate=   3.0kbits/s speed=0.125x elapsed=0:00:15.49    \nframe=   65 fps=4.1 q=40.0 size=       1KiB time=00:00:02.13 bitrate=   2.7kbits/s speed=0.133x elapsed=0:00:16.02    \nframe=   69 fps=4.2 q=59.0 size=       1KiB time=00:00:02.26 bitrate=   2.5kbits/s speed=0.137x elapsed=0:00:16.53    \nframe=   73 fps=4.3 q=55.0 size=       1KiB time=00:00:02.40 bitrate=   2.4kbits/s speed=0.141x elapsed=0:00:17.05    \nframe=   79 fps=4.5 q=60.0 size=       1KiB time=00:00:02.60 bitrate=   2.2kbits/s speed=0.148x elapsed=0:00:17.56    \nframe=   85 fps=4.7 q=60.0 size=       1KiB time=00:00:02.80 bitrate=   2.0kbits/s speed=0.155x elapsed=0:00:18.07    \nframe=   89 fps=4.8 q=56.0 size=       1KiB time=00:00:02.93 bitrate=   1.9kbits/s speed=0.158x elapsed=0:00:18.59    \nframe=   93 fps=4.9 q=58.0 size=       1KiB time=00:00:03.06 bitrate=   1.9kbits/s speed=0.16x elapsed=0:00:19.10    \nframe=   99 fps=5.0 q=60.0 size=       1KiB time=00:00:03.26 bitrate=   1.7kbits/s speed=0.166x elapsed=0:00:19.63    \nframe=  103 fps=5.1 q=55.0 size=       1KiB time=00:00:03.40 bitrate=   1.7kbits/s speed=0.169x elapsed=0:00:20.14    \nframe=  105 fps=5.1 q=58.0 size=       1KiB time=00:00:03.46 bitrate=   1.6kbits/s speed=0.168x elapsed=0:00:20.66    \nframe=  109 fps=5.1 q=54.0 size=       1KiB time=00:00:03.60 bitrate=   1.6kbits/s speed=0.17x elapsed=0:00:21.18    \nframe=  113 fps=5.2 q=53.0 size=       1KiB time=00:00:03.73 bitrate=   1.5kbits/s speed=0.172x elapsed=0:00:21.68    \nframe=  117 fps=5.3 q=58.0 size=       1KiB time=00:00:03.86 bitrate=   1.5kbits/s speed=0.174x elapsed=0:00:22.20    \nframe=  121 fps=5.3 q=54.0 size=       1KiB time=00:00:04.00 bitrate=   1.4kbits/s speed=0.176x elapsed=0:00:22.71    \nframe=  123 fps=5.3 q=59.0 size=       1KiB time=00:00:04.06 bitrate=   1.4kbits/s speed=0.175x elapsed=0:00:23.23    \nframe=  127 fps=5.3 q=60.0 size=       1KiB time=00:00:04.20 bitrate=   1.4kbits/s speed=0.177x elapsed=0:00:23.76    \nframe=  131 fps=5.4 q=60.0 size=       1KiB time=00:00:04.33 bitrate=   1.3kbits/s speed=0.179x elapsed=0:00:24.26    \nframe=  137 fps=5.5 q=58.0 size=       1KiB time=00:00:04.53 bitrate=   1.3kbits/s speed=0.183x elapsed=0:00:24.79    \nframe=  137 fps=5.4 q=58.0 size=       1KiB time=00:00:04.53 bitrate=   1.3kbits/s speed=0.179x elapsed=0:00:25.29    \nframe=  143 fps=5.5 q=60.0 size=       1KiB time=00:00:04.73 bitrate=   1.2kbits/s speed=0.183x elapsed=0:00:25.81    \n[out#0/matroska @ 000001eee6090d00] video:636KiB audio:0KiB subtitle:0KiB other streams:0KiB global headers:0KiB muxing overhead: 0.221781%\nframe=  150 fps=5.8 q=60.0 Lsize=     638KiB time=00:00:04.96 bitrate=1051.8kbits/s speed=0.192x elapsed=0:00:25.91    \n",
  "seconds": 26.31093430519104,
  "probe_out": {}
}